<svg id="Layer_1" data-name="Layer 1" xmlns="http://www.w3.org/2000/svg" xmlns:xlink="http://www.w3.org/1999/xlink" viewBox="0 0 26.4 18.48">
  <defs>
    <style>
      .cls-1 {
        fill: none;
      }

      .cls-2 {
        clip-path: url(#clip-path);
      }

      .cls-3 {
        fill: #8fba3d;
      }
    </style>
    <clipPath id="clip-path" transform="translate(0 0)">
      <rect class="cls-1" width="26.4" height="18.29"/>
    </clipPath>
  </defs>
  <title>check</title>
  <g class="cls-2">
    <path class="cls-3" d="M26.4.13,24.3,1.9c-1.58,1.35-3.19,2.68-4.74,4a97,97,0,0,0-7.89,7.76c-.8.89-1.58,1.8-2.39,2.69a21.62,21.62,0,0,1-2.12,2.07v0h-1l-.26-.26a21.88,21.88,0,0,1-2-2.34C2.8,14.46,1.76,13,.71,11.61l-.71-1v0c.19-.14.39-.27.56-.41a2.87,2.87,0,0,1,1.22-.54A7.07,7.07,0,0,1,3.4,9.49H4.92c.11,0,.15,0,.19.1l1.68,4,0,.09.47-.38c2.44-2,4.87-4,7.32-5.95,2-1.63,4.14-3.19,6.37-4.66.67-.44,1.38-.85,2.09-1.27A11.43,11.43,0,0,1,24.66.68L26.28,0l.12,0Z" transform="translate(0 0)"/>
  </g>
</svg>
