<svg id="Layer_1" data-name="Layer 1" xmlns="http://www.w3.org/2000/svg" viewBox="0 0 43.18 40.01">
  <defs>
    <style>
      .cls-1 {
        fill: #fff;
      }
    </style>
  </defs>
  <title>icon-card-lock</title>
  <path class="cls-1" d="M24.58,19.09l-2,.78-2.2.84L20,19.9l2.2-.84,2.2-.84.29.76,0,0a9.59,9.59,0,0,1,1-.66l-.2-.52.74-.28L30,16.06l.31.82-.1,0a12.9,12.9,0,0,1,1.34-.08,12.7,12.7,0,0,1,2.85.32,1.51,1.51,0,0,0-.07-.25L28.27,1a1.45,1.45,0,0,0-.78-.83,1.48,1.48,0,0,0-1.13,0L20.57,2.32,16.45,3.9,10.87,6,8.07,7.11,5.27,8.18.95,9.84a1.55,1.55,0,0,0-.82.78,1.45,1.45,0,0,0,0,1.14l6.09,16a1.47,1.47,0,0,0,.78.82,1.48,1.48,0,0,0,1.12,0l4.32-1.66,2.8-1.07L18,24.75l4-1.52A6.59,6.59,0,0,1,24.58,19.09ZM27,14.87a2.4,2.4,0,0,1-1.68,0,2.34,2.34,0,1,1-1.24-3.26,2.42,2.42,0,0,1,1.26-1.12A2.34,2.34,0,1,1,27,14.87ZM2.9,16.79l-1.51-4,4.93-1.89,2.8-1.07,2.8-1.07,5.58-2.14,4.12-1.58,6.63-2.54,1.51,4L23.13,9,19,10.61l-5.58,2.14-2.8,1.07L7.83,14.9Zm4.91,4.65-1.14-3,2.2-.84,2.8-1.07,2.8-1.07,2.2-.84,1.14,3-2.2.84-2.8,1.07L10,20.6Zm3.55,2.71L9.17,25l-.31-.82,2.2-.84,2.21-.85.31.82ZM17,22l-2.21.85L14.44,22l2.21-.85,2.2-.84.31.82Z"/>
  <path class="cls-1" d="M42.55,27.15A2.64,2.64,0,0,0,41,26.68h-.35V24A6,6,0,0,0,38,19.29a10.84,10.84,0,0,0-6.43-2,10.87,10.87,0,0,0-6.43,2A6,6,0,0,0,22.48,24v2.65H22a2.64,2.64,0,0,0-1.56.47,1.41,1.41,0,0,0-.63,1.13V38.4a1.41,1.41,0,0,0,.63,1.13A2.63,2.63,0,0,0,22,40H41a2.63,2.63,0,0,0,1.56-.48,1.41,1.41,0,0,0,.63-1.13V28.26A1.39,1.39,0,0,0,42.55,27.15ZM33.13,34a.29.29,0,0,0-.1.07v.09h0v2.29a1,1,0,0,1-.74.91h0a2,2,0,0,1-.7.13,1.68,1.68,0,0,1-1-.32,1,1,0,0,1-.43-.78V34.17a.17.17,0,0,0,0-.09A.23.23,0,0,0,30,34h0a1.86,1.86,0,0,1-1.1-1.58,1.57,1.57,0,0,1,.24-.82h0a2.79,2.79,0,0,1,2.38-1.16,3.24,3.24,0,0,1,.47,0h0a3.07,3.07,0,0,1,1.54.66,1.66,1.66,0,0,1,.62,1.25A1.81,1.81,0,0,1,33.13,34Zm4-7.54v.24H26V24a3.7,3.7,0,0,1,1.64-2.94,7,7,0,0,1,7.84,0A3.7,3.7,0,0,1,37.13,24Z"/>
</svg>
