<svg id="Layer_1" data-name="Layer 1" xmlns="http://www.w3.org/2000/svg" viewBox="0 0 34.45 25.04">
  <defs>
    <style>
      .cls-1 {
        fill: #fff;
      }
    </style>
  </defs>
  <title>icon-laptop</title>
  <path class="cls-1" d="M28.48,19.26H6V2.58H28.48ZM17.23.68a.62.62,0,0,1,.54.67.55.55,0,1,1-1.09,0,.62.62,0,0,1,.54-.67m13.25.43A1,1,0,0,0,29.57,0H4.88A1,1,0,0,0,4,1.11V21H30.48Z"/>
  <path class="cls-1" d="M5.18,23.71H2.76c-.14,0-.25-.15-.25-.33s.11-.33.25-.33H5.18c.14,0,.25.15.25.33s-.11.33-.25.33m15-1.91v.88c0,.22-.13.24-.24.24H14.48c-.11,0-.24,0-.24-.24V21.8H0V24c0,.64.84,1,1.54,1H32.91c.7,0,1.54-.41,1.54-1V21.8Z"/>
</svg>
